<?xml version="1.0" encoding="utf-8"?>
<!-- Generator: Adobe Illustrator 23.0.2, SVG Export Plug-In . SVG Version: 6.00 Build 0)  -->
<svg version="1.1" id="e60076dd-5554-4f7c-b868-57d8b497b3f0"
	 xmlns="http://www.w3.org/2000/svg" xmlns:xlink="http://www.w3.org/1999/xlink" x="0px" y="0px" viewBox="0 0 88.5 74.6"
	 style="enable-background:new 0 0 88.5 74.6;" xml:space="preserve">
<style type="text/css">
	.st0{fill:#B55A3A;}
	.st1{fill:#3093F7;}
	.st2{fill:#FFFFFF;}
</style>
<title>Exylir</title>
<path class="st0" d="M56.2,73"/>
<path class="st1" d="M80.4,34.2c0-0.5,0-0.8,0-1.3c0-1,0-1.9,0-2.8c0-0.3,0-0.6,0-0.8v-0.2V29c-0.2-2.3-0.3-4.1-0.5-5.5
	c-0.2-1.5-0.5-2.9-1-4.4c-0.8-2.3-1.8-4.5-2.9-6.7c-2.6-5.4-8.9-8.9-18.7-10.4c-1-0.2-2.1-0.3-3.2-0.3c-3.1-0.3-6.3-0.5-9.4-0.5
	c-3.4,0-6.7,0.2-9.6,0.5C30,2.1,25,3.4,20.3,5.3c-3.4,1.5-6.2,3.9-7.8,7.1c-1.8,3.2-2.9,6.8-3.6,10.6c-0.5,2.3-0.6,5.2-0.8,9.1v5.8
	c0,4.5,0.2,9.1,0.6,13.5c0.6,3.9,1.9,7.5,3.7,10.9c2.3,4.2,6.2,7.5,10.9,8.6c0.8,0.3,1.8,0.5,2.8,0.8c5.4,1.1,10.9,1.6,16.4,1.6
	c0.5,0,1.1,0,1.6,0c2.1,0,4.2,0,6.2-0.2c1.9-0.2,4.1-0.3,5.8-0.5c3.1-0.3,6-1,8.9-1.8c4.7-1.1,8.6-4.2,10.9-8.4
	c1-1.9,1.9-4.1,2.6-6.3c0,0,0-0.2,0.2-0.2c0.5-1.5,0.8-2.9,1-4.4s0.3-3.2,0.5-5.4c0,0,0-0.2,0-0.3c0-0.3,0-0.5,0-0.8
	c0-0.3,0-0.5,0-0.8c0-0.5,0-1.1,0-1.8v-0.3c0-1.5,0-3.2,0-4.9C80.4,36.3,80.4,35.2,80.4,34.2z M61.5,56.8c-0.3,0.2-0.8,0.3-1.3,0.5
	c-0.5,0-1.1,0-1.6,0c-0.5,0-1.1,0-1.6,0c-0.5,0-0.8-0.2-1.3-0.5c-0.5-0.3-0.8-0.8-1-1.3c-0.3-1.6-0.3-3.2,0-4.9c0.2-0.5,0.5-1,1-1.3
	c0.5-0.2,0.8-0.3,1.3-0.5c0.5,0,1.1,0,1.6,0c0.5,0,1.1,0,1.6,0c0.5,0,0.8,0.2,1.3,0.5c0.8,0.5,1.3,1.6,1.3,3.7
	c0.2,1-0.2,2.1-0.5,3.1l0,0C62.2,56.5,61.9,56.6,61.5,56.8z M52.3,19.6c0.3-0.3,0.5-0.6,0.8-1c0.5-0.6,1.3-1.1,2.3-1.3
	c0.8,0.2,1.6,0.6,2.1,1.3l4.1,4.1l0,0l3.6-3.6l0.3-0.3c0.5-0.6,1.3-1.1,2.3-1.3c0.8,0.2,1.6,0.6,2.1,1.3c0.2,0.2,0.2,0.2,0.3,0.3
	c0.5,0.5,0.8,1.1,1,1.8c-0.2,0.8-0.6,1.6-1.3,2.3l-0.2,0.2l-3.7,3.9l1.8,1.8l2.1,2.3c0.6,0.5,1.1,1.3,1.3,2.3
	c-0.2,0.8-0.6,1.6-1.3,2.1c-0.5,0.6-1.3,1.1-2.1,1.3c-0.8-0.2-1.6-0.6-2.3-1.3l-3.9-3.9l-4.1,3.9c-0.5,0.6-1.3,1.1-2.1,1.3
	c-0.8-0.2-1.6-0.6-2.3-1.3c-0.3-0.3-0.6-0.6-0.8-1c-0.3-0.5-0.3-1-0.5-1.3c0-0.5,0.2-0.8,0.5-1.3c0.2-0.3,0.5-0.6,0.8-1l4.1-4.1
	L53.1,23c-0.3-0.3-0.6-0.6-0.8-1C51.6,21.4,51.6,20.4,52.3,19.6z M23.1,35.5c-0.5,0.6-1.3,1.1-2.1,1.3c-0.8-0.2-1.6-0.6-2.1-1.3
	c-0.6-0.5-1.1-1.3-1.3-2.1c0.2-0.8,0.6-1.6,1.3-2.3l3.9-4.1L18.7,23c-0.6-0.5-1.1-1.3-1.3-2.3c0.2-0.8,0.6-1.6,1.3-2.3
	c0.5-0.6,1.3-1.1,2.1-1.3c0.8,0.2,1.6,0.6,2.1,1.3l4.1,4.1l3.9-4.1c0.5-0.6,1.3-1.1,2.1-1.3c0.8,0.2,1.6,0.6,2.1,1.3
	c0.6,0.5,1.1,1.3,1.3,2.3c-0.2,0.8-0.6,1.6-1.3,2.3l-1.5,1.5l-2.3,2.8l4.1,4.1c0.6,0.5,1.1,1.3,1.3,2.3c-0.2,0.8-0.6,1.6-1.3,2.3
	c-0.5,0.6-1.3,1.1-2.1,1.3c-0.8-0.2-1.6-0.6-2.1-1.3l-3.9-4.1L23.1,35.5z M28.1,57.3c-0.5,0-0.8-0.2-1.3-0.5
	c-0.8-0.5-1.3-1.6-1.3-3.7c0-2.1,0.5-3.2,1.3-3.7c0.3-0.2,0.8-0.3,1.3-0.5c0.5,0,1.1,0,1.6,0h17.1c0.5,0,1.1,0,1.6,0
	c0.5,0,0.8,0.2,1.3,0.5c0.8,0.5,1.3,1.6,1.3,3.7c0.2,1.1-0.2,2.3-0.8,3.2l0,0c-0.5,0.6-1.3,1-2.1,0.8H29.7
	C29.2,57.4,28.7,57.4,28.1,57.3z"/>
<path class="st2" d="M62.4,56.3L62.4,56.3c-0.2,0.2-0.5,0.5-0.8,0.6c-0.3,0.2-0.8,0.3-1.3,0.5c-0.5,0-1.1,0-1.6,0
	c-0.5,0-1.1,0-1.6,0c-0.5,0-0.8-0.2-1.3-0.5c-0.5-0.3-0.8-0.8-1-1.3c-0.3-1.6-0.3-3.2,0-4.9c0.2-0.5,0.5-1,1-1.3
	c0.5-0.2,0.8-0.3,1.3-0.5c0.5,0,1.1,0,1.6,0c0.5,0,1.1,0,1.6,0c0.5,0,0.8,0.2,1.3,0.5c0.8,0.5,1.3,1.6,1.3,3.7
	C63,54.2,62.8,55.3,62.4,56.3z"/>
<path class="st2" d="M50.2,56.6L50.2,56.6c-0.5,0.5-1.3,0.8-2.1,0.8H29.7c-0.5,0-1.1,0-1.6,0s-0.8-0.2-1.3-0.5
	c-0.8-0.5-1.3-1.6-1.3-3.7c0-2.1,0.5-3.2,1.3-3.7c0.3-0.2,0.8-0.3,1.3-0.5c0.5,0,1.1,0,1.6,0h17.1c0.5,0,1.1,0,1.6,0
	c0.5,0,0.8,0.2,1.3,0.5c0.8,0.5,1.3,1.6,1.3,3.7C51.2,54.4,50.8,55.5,50.2,56.6z"/>
<path class="st2" d="M71.1,33.4c-0.2,0.8-0.6,1.6-1.3,2.1c-0.5,0.6-1.3,1.1-2.1,1.3c-0.8-0.2-1.6-0.6-2.3-1.3l-3.9-3.9l-4.1,3.9
	c-0.5,0.6-1.3,1.1-2.1,1.3c-0.8-0.2-1.6-0.6-2.3-1.3c-0.3-0.3-0.6-0.6-0.8-1c-0.3-0.3-0.3-0.8-0.5-1.1c0-0.5,0.2-0.8,0.5-1.3
	c0.2-0.3,0.5-0.6,0.8-1l4.1-4.1L53.1,23c-0.3-0.3-0.6-0.6-0.8-1c-0.6-0.6-0.6-1.8,0-2.4c0.3-0.3,0.5-0.6,0.8-1
	c0.5-0.6,1.3-1.1,2.3-1.3c0.8,0.2,1.6,0.6,2.1,1.3l4.1,4.1l0,0l3.6-3.6l0.3-0.3c0.5-0.6,1.3-1.1,2.3-1.3c0.8,0.2,1.6,0.6,2.1,1.3
	c0.2,0.2,0.2,0.2,0.3,0.3c0.5,0.5,0.8,1.1,1,1.8c-0.2,0.8-0.6,1.6-1.3,2.3l-0.2,0.2l-3.7,3.9l1.8,1.8l2.1,2.3
	C70.5,31.6,71,32.4,71.1,33.4z"/>
<path class="st2" d="M36.7,33.4c-0.2,0.8-0.6,1.6-1.3,2.3c-0.5,0.6-1.3,1.1-2.1,1.3c-0.8-0.2-1.6-0.6-2.1-1.3l-3.9-4.1l-4.1,3.9
	c-0.5,0.6-1.3,1.1-2.1,1.3c-0.8-0.2-1.6-0.6-2.1-1.3c-0.6-0.5-1.1-1.3-1.3-2.1c0.2-0.8,0.6-1.6,1.3-2.3l3.7-4.1L18.7,23
	c-0.6-0.5-1.1-1.3-1.3-2.3c0.2-0.8,0.6-1.6,1.3-2.3c0.5-0.6,1.3-1.1,2.1-1.3c0.8,0.2,1.6,0.6,2.1,1.3l4.1,4.1l3.9-4.1
	c0.5-0.6,1.3-1.1,2.1-1.3c0.8,0.2,1.6,0.6,2.1,1.3c0.6,0.5,1.1,1.3,1.3,2.3c-0.2,0.8-0.6,1.6-1.3,2.3l-1.5,1.5l-2.3,2.8l4.1,4.1
	C36,31.8,36.5,32.6,36.7,33.4z"/>
</svg>
